<svg id="Layer_1" data-name="Layer 1" xmlns="http://www.w3.org/2000/svg" viewBox="0 0 5100 2000"><defs><style>.cls-1{fill:#5f6368;}.cls-2{fill:#fbc02d;}.cls-3{fill:#ff8209;}.cls-4{fill:#3965b0;}</style></defs><title>Artboard 96 copy</title><path class="cls-1" d="M3124.43,717.4Q3082.34,660.3,3014.7,634t-132.27-26.31q-82.69,0-150.32,30.06T2615.6,720.4q-48.84,52.64-75.15,123.27T2514.15,997q0,87.19,25.55,159.34t72.91,124q47.34,51.86,113.48,80.42t148.81,28.56q85.7,0,151.83-33.83t106.72-89.43l151.83,106.72a486.26,486.26,0,0,1-172.88,137.55q-102.22,48.83-239,48.85-124.77,0-229.23-41.34t-179.63-115.75q-75.18-74.38-117.24-177.36T2305.2,997q0-127.75,44.34-230.74T2471.3,591.13q77.4-72.14,182.64-111.24t228.49-39.07a617.56,617.56,0,0,1,106.72,9.77,544.23,544.23,0,0,1,106.72,30.06A518,518,0,0,1,3192.08,531a310.08,310.08,0,0,1,76.66,72.15Z"/><path class="cls-1" d="M3371,565.58q0-43.58,32.33-75.92t81.92-32.31q49.61,0,83.43,30.82t33.81,77.41q0,46.6-33.81,77.41T3485.2,673.8q-49.6,0-81.92-32.31T3371,565.58Zm25.57,245h180.37v721.52H3396.52Z"/><path class="cls-1" d="M3796.34,810.6H3969.2V930.86h3q30-63.15,84.18-102.22t126.26-39.09q10.52,0,22.55.76a84.25,84.25,0,0,1,21,3.75V959.41a254.85,254.85,0,0,0-30.81-6,215.27,215.27,0,0,0-24.81-1.51q-61.65,0-99.2,22.56t-58.62,54.11q-21.08,31.57-28.56,64.64t-7.52,52.6v386.32H3796.34Z"/><path class="cls-1" d="M5050,1892.88H4869.63v-457h-3q-34.6,54.12-98.46,85.68t-140.55,31.57q-82.68,0-148.06-30.82t-111.24-82.68q-45.86-51.86-70.64-121.76t-24.81-149.55q0-79.66,25.56-148.82t72.15-120.25q46.58-51.1,111.24-80.42t141.29-29.32q49.6,0,89.44,11.28t71.4,28.56q31.57,17.29,53.36,39.08t35.33,42.84h4.51V810.6H5050Zm-593.75-724.52a288.41,288.41,0,0,0,12.77,84.18,230.79,230.79,0,0,0,38.34,75.15q25.55,33.07,64.63,54.12t91.7,21q49.59,0,88.68-20.3a217.25,217.25,0,0,0,66.9-53.36,232.73,232.73,0,0,0,42.09-74.41,254.06,254.06,0,0,0,14.28-83.42,260.87,260.87,0,0,0-14.28-84.17,231.46,231.46,0,0,0-42.09-75.16,228,228,0,0,0-66.9-54.12q-39.1-21-88.68-21-52.63,0-91.7,20.29t-64.63,53.36a232.48,232.48,0,0,0-38.34,74.41A281.12,281.12,0,0,0,4456.25,1168.36Z"/><polygon class="cls-2" points="1679.2 1456.99 1679.2 1664.19 1190.07 1952.49 478.96 1534 478.96 1333.79 1179.8 1739.14 1190.07 1745.09 1200.34 1738.93 1679.2 1456.99"/><polygon class="cls-3" points="1114.5 1955.78 765.62 1955.78 416.33 1752.08 259.66 1659.05 259.66 845.68 437.89 741.78 437.89 1557.41 447.95 1563.36 1114.5 1955.78"/><polygon class="cls-4" points="1678.99 337.46 1678.99 542.39 982.88 131.91 835.03 44.23 1179.6 44.23 1678.99 337.46"/><polygon class="cls-4" points="1659.28 1420.85 1189.87 1697.45 1015.94 1596.63 1491.52 1321.88 1659.28 1420.85"/><polygon class="cls-2" points="934.62 403.17 229.47 816.12 219.2 822.07 219.2 1636.46 50 1536.05 50 728.23 762.54 300.7 934.62 403.17"/><polygon class="cls-3" points="1659.28 578.33 1491.52 677.71 770.35 260.04 759.87 254.09 749.4 260.25 50 679.56 50 473.81 760.08 47.31 1659.28 578.33"/></svg>