<svg xmlns="http://www.w3.org/2000/svg" width="56.08" height="63.62" viewBox="0 0 56.08 63.62">
  <defs>
    <style>
      .text {fill: rgb(95, 99, 104);}
      @media (prefers-color-scheme: dark) {
        .text {fill: white;}
      }
    </style>
  </defs>
  <g>
    <g>
      <path d="M25.93,8.63v5l5.45,3.13v24L20,34.24V0L15.18,2.74V36.21L35.73,48V14.25Z" style="fill: #fac300"/>
      <path d="M20.76.47V33.75l9.8,5.62v-5l-5.45-3.14V19.12l-2.18-1.25,2.18-4.71V7.22l11.44,6.56V47.53L40.9,45V12Z" style="fill: #1967d2"/>
      <path d="M20.76,33.75l9.8,5.62v-5l-5.45-3.14Z" style="fill: #174ea6"/>
      <path d="M25.93,8.63v5l5.45,3.13,4.35-2.5Z" style="fill: #f9ab00"/>
    </g>
    <path class="text" d="M4,55.23a3.81,3.81,0,0,0-2.82,1.16,4.17,4.17,0,0,0,0,5.73A3.81,3.81,0,0,0,4,63.28a4.22,4.22,0,0,0,1.85-.44l.53.78.78-.5-.54-.81a4,4,0,0,0,1-1.37,4,4,0,0,0,.35-1.69A3.9,3.9,0,0,0,6.78,56.4,3.78,3.78,0,0,0,4,55.23ZM6,61.49l-.89-1.34-.78.53L5.27,62a3,3,0,0,1-1.31.3,2.84,2.84,0,0,1-2.11-.87,3.31,3.31,0,0,1,0-4.41A2.85,2.85,0,0,1,4,56.17a2.81,2.81,0,0,1,2.1.88,3,3,0,0,1,.85,2.2A3,3,0,0,1,6,61.49Zm6.53-3.66h1v5.28h-.94v-.73h0a1.72,1.72,0,0,1-.69.64,1.92,1.92,0,0,1-1,.26,2,2,0,0,1-1.49-.55,2.21,2.21,0,0,1-.52-1.58V57.83h1v3.26a1.16,1.16,0,0,0,1.3,1.29,1.22,1.22,0,0,0,1-.48,1.73,1.73,0,0,0,.4-1.15V57.83Zm4.15-.17a2.43,2.43,0,0,0-2.13,1l.87.55a1.5,1.5,0,0,1,1.31-.7,1.4,1.4,0,0,1,1,.36,1.13,1.13,0,0,1,.41.87V60a2.88,2.88,0,0,0-1.45-.32,2.66,2.66,0,0,0-1.66.48,1.57,1.57,0,0,0-.62,1.3A1.64,1.64,0,0,0,15,62.76a2.11,2.11,0,0,0,1.46.52,1.9,1.9,0,0,0,1.64-.9h0v.73h.95V59.86a2.1,2.1,0,0,0-.64-1.61A2.45,2.45,0,0,0,16.71,57.66Zm.93,4.27a1.59,1.59,0,0,1-1.12.47,1.23,1.23,0,0,1-.77-.26.81.81,0,0,1-.32-.65.87.87,0,0,1,.4-.72,1.72,1.72,0,0,1,1-.29,2,2,0,0,1,1.29.37A1.44,1.44,0,0,1,17.64,61.93Zm15.57-4.1h1v5.28h-1v-.73h0a1.72,1.72,0,0,1-.69.64,2.16,2.16,0,0,1-2.47-.29,2.21,2.21,0,0,1-.52-1.58V57.83h1v3.26a1.16,1.16,0,0,0,1.3,1.29,1.25,1.25,0,0,0,1-.48,1.73,1.73,0,0,0,.4-1.15V57.83Zm22.87-2.45v7.73h-1V55.38Zm-5.94,0-2.91,7.73h1.1L49.08,61h3.25l.75,2.09h1.1l-2.92-7.73Zm-.72,4.71,1.26-3.49h0L52,60.09Zm-6.5-1.87a2.33,2.33,0,0,1,.49,1.59v3.3h-1V60a1.78,1.78,0,0,0-.26-1.08,1.15,1.15,0,0,0-.91-.32,1.19,1.19,0,0,0-1,.48,1.74,1.74,0,0,0-.38,1.14v2.92h-1V60a1.71,1.71,0,0,0-.27-1.08,1.14,1.14,0,0,0-.91-.32,1.19,1.19,0,0,0-1,.48,1.8,1.8,0,0,0-.38,1.14v2.92h-1V57.83h.94v.74h0a1.74,1.74,0,0,1,.69-.65,2,2,0,0,1,.93-.26,2,2,0,0,1,1,.27,1.59,1.59,0,0,1,.64.74,2.08,2.08,0,0,1,1.82-1A1.79,1.79,0,0,1,42.92,58.22Zm-18.57,0a2.23,2.23,0,0,1,.52,1.57v3.32h-1V59.86a1.17,1.17,0,0,0-1.31-1.29,1.25,1.25,0,0,0-1,.48,1.75,1.75,0,0,0-.39,1.14v2.92h-1V57.84h.94v.73h.05a1.74,1.74,0,0,1,.69-.65,2,2,0,0,1,1-.26A2,2,0,0,1,24.35,58.22Zm4.09,4,.31.88a2.5,2.5,0,0,1-.9.14,1.52,1.52,0,0,1-1.07-.39,1.48,1.48,0,0,1-.44-1.11V58.74h-.92v-.91h.92V56.22h1v1.61h1.29v.91H27.33v2.62a.94.94,0,0,0,.21.72.63.63,0,0,0,.46.19.85.85,0,0,0,.23,0Z"/>
  </g>
</svg>
