<?xml version="1.0" encoding="UTF-8" standalone="no"?>
<svg
   xmlns:dc="http://purl.org/dc/elements/1.1/"
   xmlns:cc="http://creativecommons.org/ns#"
   xmlns:rdf="http://www.w3.org/1999/02/22-rdf-syntax-ns#"
   xmlns:svg="http://www.w3.org/2000/svg"
   xmlns="http://www.w3.org/2000/svg"
   xmlns:sodipodi="http://sodipodi.sourceforge.net/DTD/sodipodi-0.dtd"
   xmlns:inkscape="http://www.inkscape.org/namespaces/inkscape"
   id="Layer_1"
   data-name="Layer 1"
   viewBox="0 0 1729.2 2011.55"
   version="1.1"
   sodipodi:docname="Cirq_logo_notext.svg"
   width="1729.2"
   height="2011.55"
   inkscape:version="0.92.4 (5da689c313, 2019-01-14)">
  <metadata
     id="metadata31">
    <rdf:RDF>
      <cc:Work
         rdf:about="">
        <dc:format>image/svg+xml</dc:format>
        <dc:type
           rdf:resource="http://purl.org/dc/dcmitype/StillImage" />
        <dc:title>Artboard 96 copy</dc:title>
      </cc:Work>
    </rdf:RDF>
  </metadata>
  <sodipodi:namedview
     pagecolor="#ffffff"
     bordercolor="#666666"
     borderopacity="1"
     objecttolerance="10"
     gridtolerance="10"
     guidetolerance="10"
     inkscape:pageopacity="0"
     inkscape:pageshadow="2"
     inkscape:window-width="1518"
     inkscape:window-height="1025"
     id="namedview29"
     showgrid="false"
     units="px"
     fit-margin-top="50"
     fit-margin-left="50"
     fit-margin-right="50"
     fit-margin-bottom="50"
     inkscape:zoom="0.076470588"
     inkscape:cx="2437.2538"
     inkscape:cy="895.78"
     inkscape:window-x="0"
     inkscape:window-y="0"
     inkscape:window-maximized="0"
     inkscape:current-layer="Layer_1" />
  <defs
     id="defs4">
    <style
       id="style2">.cls-1{fill:#5f6368;}.cls-2{fill:#fbc02d;}.cls-3{fill:#ff8209;}.cls-4{fill:#3965b0;}</style>
  </defs>
  <title
     id="title6">Artboard 96 copy</title>
  <polygon
     class="cls-2"
     points="1190.07,1952.49 478.96,1534 478.96,1333.79 1179.8,1739.14 1190.07,1745.09 1200.34,1738.93 1679.2,1456.99 1679.2,1664.19 "
     id="polygon16"
     style="fill:#fbc02d"
     transform="translate(0,5.77)" />
  <polygon
     class="cls-3"
     points="416.33,1752.08 259.66,1659.05 259.66,845.68 437.89,741.78 437.89,1557.41 447.95,1563.36 1114.5,1955.78 765.62,1955.78 "
     id="polygon18"
     style="fill:#ff8209"
     transform="translate(0,5.77)" />
  <polygon
     class="cls-4"
     points="982.88,131.91 835.03,44.23 1179.6,44.23 1678.99,337.46 1678.99,542.39 "
     id="polygon20"
     style="fill:#3965b0"
     transform="translate(0,5.77)" />
  <polygon
     class="cls-4"
     points="1015.94,1596.63 1491.52,1321.88 1659.28,1420.85 1189.87,1697.45 "
     id="polygon22"
     style="fill:#3965b0"
     transform="translate(0,5.77)" />
  <polygon
     class="cls-2"
     points="219.2,822.07 219.2,1636.46 50,1536.05 50,728.23 762.54,300.7 934.62,403.17 229.47,816.12 "
     id="polygon24"
     style="fill:#fbc02d"
     transform="translate(0,5.77)" />
  <polygon
     class="cls-3"
     points="770.35,260.04 759.87,254.09 749.4,260.25 50,679.56 50,473.81 760.08,47.31 1659.28,578.33 1491.52,677.71 "
     id="polygon26"
     style="fill:#ff8209"
     transform="translate(0,5.77)" />
</svg>
